<mxfile host="app.diagrams.net" modified="2024-05-03T14:32:55.043Z" agent="Mozilla/5.0 (Windows NT 10.0; Win64; x64; rv:109.0) Gecko/20100101 Firefox/115.0" etag="vmJVm_GIy5T0agWtyKBo" version="24.3.1" type="device">
  <diagram name="Page-1" id="6_uG9G4QXuL_a9NMh_rZ">
    <mxGraphModel dx="1434" dy="756" grid="1" gridSize="10" guides="1" tooltips="1" connect="1" arrows="1" fold="1" page="1" pageScale="1" pageWidth="3300" pageHeight="2339" math="0" shadow="0">
      <root>
        <mxCell id="0" />
        <mxCell id="1" parent="0" />
        <mxCell id="wCHP_Dc-bE9rDjU99wCx-6" style="edgeStyle=orthogonalEdgeStyle;rounded=0;orthogonalLoop=1;jettySize=auto;html=1;exitX=0.25;exitY=0;exitDx=0;exitDy=0;endArrow=oval;endFill=1;" parent="1" source="wCHP_Dc-bE9rDjU99wCx-1" edge="1">
          <mxGeometry relative="1" as="geometry">
            <mxPoint x="1500.142857142857" y="1037" as="targetPoint" />
          </mxGeometry>
        </mxCell>
        <mxCell id="wCHP_Dc-bE9rDjU99wCx-8" style="edgeStyle=orthogonalEdgeStyle;rounded=0;orthogonalLoop=1;jettySize=auto;html=1;endArrow=oval;endFill=0;" parent="1" source="wCHP_Dc-bE9rDjU99wCx-1" edge="1">
          <mxGeometry relative="1" as="geometry">
            <mxPoint x="1530" y="1037" as="targetPoint" />
          </mxGeometry>
        </mxCell>
        <mxCell id="wCHP_Dc-bE9rDjU99wCx-1" value="&lt;font style=&quot;font-size: 17px;&quot;&gt;Persona&lt;/font&gt;" style="rounded=0;whiteSpace=wrap;html=1;" parent="1" vertex="1">
          <mxGeometry x="1470" y="1077" width="120" height="60" as="geometry" />
        </mxCell>
        <mxCell id="wCHP_Dc-bE9rDjU99wCx-4" style="edgeStyle=orthogonalEdgeStyle;rounded=0;orthogonalLoop=1;jettySize=auto;html=1;entryX=0.5;entryY=1;entryDx=0;entryDy=0;" parent="1" source="wCHP_Dc-bE9rDjU99wCx-2" target="wCHP_Dc-bE9rDjU99wCx-1" edge="1">
          <mxGeometry relative="1" as="geometry">
            <Array as="points">
              <mxPoint x="1302" y="1167" />
              <mxPoint x="1530" y="1167" />
            </Array>
          </mxGeometry>
        </mxCell>
        <mxCell id="wCHP_Dc-bE9rDjU99wCx-2" value="&lt;font style=&quot;font-size: 17px;&quot;&gt;Artista&lt;/font&gt;" style="rounded=0;whiteSpace=wrap;html=1;" parent="1" vertex="1">
          <mxGeometry x="1242" y="1194" width="120" height="60" as="geometry" />
        </mxCell>
        <mxCell id="wCHP_Dc-bE9rDjU99wCx-42" style="edgeStyle=orthogonalEdgeStyle;rounded=0;orthogonalLoop=1;jettySize=auto;html=1;endArrow=none;endFill=0;" parent="1" edge="1">
          <mxGeometry relative="1" as="geometry">
            <mxPoint x="1530" y="1137" as="targetPoint" />
            <mxPoint x="1530" y="1196" as="sourcePoint" />
          </mxGeometry>
        </mxCell>
        <mxCell id="wCHP_Dc-bE9rDjU99wCx-101" style="edgeStyle=orthogonalEdgeStyle;rounded=0;orthogonalLoop=1;jettySize=auto;html=1;exitX=1;exitY=0;exitDx=0;exitDy=0;entryX=0.5;entryY=1;entryDx=0;entryDy=0;endArrow=none;endFill=0;" parent="1" source="wCHP_Dc-bE9rDjU99wCx-3" target="wCHP_Dc-bE9rDjU99wCx-96" edge="1">
          <mxGeometry relative="1" as="geometry">
            <Array as="points">
              <mxPoint x="1660" y="1196" />
              <mxPoint x="1660" y="977" />
            </Array>
          </mxGeometry>
        </mxCell>
        <mxCell id="wCHP_Dc-bE9rDjU99wCx-3" value="&lt;font style=&quot;font-size: 17px;&quot;&gt;Spettatore&lt;/font&gt;" style="rounded=0;whiteSpace=wrap;html=1;" parent="1" vertex="1">
          <mxGeometry x="1469" y="1196" width="120" height="60" as="geometry" />
        </mxCell>
        <mxCell id="wCHP_Dc-bE9rDjU99wCx-7" value="&lt;font style=&quot;font-size: 7px;&quot;&gt;CF&lt;/font&gt;" style="text;html=1;align=center;verticalAlign=middle;resizable=0;points=[];autosize=1;strokeColor=none;fillColor=none;" parent="1" vertex="1">
          <mxGeometry x="1484" y="1005" width="30" height="30" as="geometry" />
        </mxCell>
        <mxCell id="wCHP_Dc-bE9rDjU99wCx-9" value="&lt;font style=&quot;font-size: 7px;&quot;&gt;Nome&lt;/font&gt;" style="text;html=1;align=center;verticalAlign=middle;resizable=0;points=[];autosize=1;strokeColor=none;fillColor=none;" parent="1" vertex="1">
          <mxGeometry x="1509" y="1005" width="40" height="30" as="geometry" />
        </mxCell>
        <mxCell id="wCHP_Dc-bE9rDjU99wCx-10" style="edgeStyle=orthogonalEdgeStyle;rounded=0;orthogonalLoop=1;jettySize=auto;html=1;endArrow=oval;endFill=0;" parent="1" edge="1">
          <mxGeometry relative="1" as="geometry">
            <mxPoint x="1560" y="1037" as="targetPoint" />
            <mxPoint x="1560" y="1077" as="sourcePoint" />
          </mxGeometry>
        </mxCell>
        <mxCell id="wCHP_Dc-bE9rDjU99wCx-11" value="&lt;font style=&quot;font-size: 7px;&quot;&gt;Cognome&lt;/font&gt;" style="text;html=1;align=center;verticalAlign=middle;resizable=0;points=[];autosize=1;strokeColor=none;fillColor=none;" parent="1" vertex="1">
          <mxGeometry x="1535" y="1005" width="50" height="30" as="geometry" />
        </mxCell>
        <mxCell id="wCHP_Dc-bE9rDjU99wCx-13" style="edgeStyle=orthogonalEdgeStyle;rounded=0;orthogonalLoop=1;jettySize=auto;html=1;endArrow=oval;endFill=0;" parent="1" edge="1">
          <mxGeometry relative="1" as="geometry">
            <mxPoint x="1252" y="1154" as="targetPoint" />
            <mxPoint x="1252" y="1194" as="sourcePoint" />
          </mxGeometry>
        </mxCell>
        <mxCell id="wCHP_Dc-bE9rDjU99wCx-14" style="edgeStyle=orthogonalEdgeStyle;rounded=0;orthogonalLoop=1;jettySize=auto;html=1;endArrow=oval;endFill=0;" parent="1" edge="1">
          <mxGeometry relative="1" as="geometry">
            <mxPoint x="1282" y="1154" as="targetPoint" />
            <mxPoint x="1282" y="1194" as="sourcePoint" />
          </mxGeometry>
        </mxCell>
        <mxCell id="wCHP_Dc-bE9rDjU99wCx-15" value="&lt;font style=&quot;font-size: 7px;&quot;&gt;Cognome&lt;/font&gt;" style="text;html=1;align=center;verticalAlign=middle;resizable=0;points=[];autosize=1;strokeColor=none;fillColor=none;" parent="1" vertex="1">
          <mxGeometry x="1257" y="1122" width="50" height="30" as="geometry" />
        </mxCell>
        <mxCell id="wCHP_Dc-bE9rDjU99wCx-16" value="&lt;font style=&quot;font-size: 7px;&quot;&gt;Nome&lt;/font&gt;" style="text;html=1;align=center;verticalAlign=middle;resizable=0;points=[];autosize=1;strokeColor=none;fillColor=none;" parent="1" vertex="1">
          <mxGeometry x="1232" y="1122" width="40" height="30" as="geometry" />
        </mxCell>
        <mxCell id="wCHP_Dc-bE9rDjU99wCx-18" style="edgeStyle=orthogonalEdgeStyle;rounded=0;orthogonalLoop=1;jettySize=auto;html=1;endArrow=oval;endFill=0;" parent="1" edge="1">
          <mxGeometry relative="1" as="geometry">
            <mxPoint x="1242" y="1175" as="targetPoint" />
            <mxPoint x="1296" y="1175" as="sourcePoint" />
          </mxGeometry>
        </mxCell>
        <mxCell id="wCHP_Dc-bE9rDjU99wCx-19" style="edgeStyle=orthogonalEdgeStyle;rounded=0;orthogonalLoop=1;jettySize=auto;html=1;endArrow=oval;endFill=0;" parent="1" edge="1">
          <mxGeometry relative="1" as="geometry">
            <mxPoint x="1188" y="1214" as="targetPoint" />
            <mxPoint x="1242" y="1214" as="sourcePoint" />
          </mxGeometry>
        </mxCell>
        <mxCell id="wCHP_Dc-bE9rDjU99wCx-20" value="&lt;font style=&quot;font-size: 7px;&quot;&gt;Genere&lt;/font&gt;" style="text;html=1;align=center;verticalAlign=middle;resizable=0;points=[];autosize=1;strokeColor=none;fillColor=none;" parent="1" vertex="1">
          <mxGeometry x="1141" y="1196" width="50" height="30" as="geometry" />
        </mxCell>
        <mxCell id="wCHP_Dc-bE9rDjU99wCx-21" style="edgeStyle=orthogonalEdgeStyle;rounded=0;orthogonalLoop=1;jettySize=auto;html=1;endArrow=oval;endFill=1;" parent="1" edge="1">
          <mxGeometry relative="1" as="geometry">
            <mxPoint x="1188" y="1244" as="targetPoint" />
            <mxPoint x="1242" y="1244" as="sourcePoint" />
          </mxGeometry>
        </mxCell>
        <mxCell id="wCHP_Dc-bE9rDjU99wCx-22" value="&lt;font style=&quot;font-size: 7px;&quot;&gt;Nome d&#39;arte&lt;/font&gt;" style="text;html=1;align=center;verticalAlign=middle;resizable=0;points=[];autosize=1;strokeColor=none;fillColor=none;" parent="1" vertex="1">
          <mxGeometry x="1130" y="1226" width="60" height="30" as="geometry" />
        </mxCell>
        <mxCell id="wCHP_Dc-bE9rDjU99wCx-24" style="edgeStyle=orthogonalEdgeStyle;rounded=0;orthogonalLoop=1;jettySize=auto;html=1;entryX=0.5;entryY=1;entryDx=0;entryDy=0;endArrow=none;endFill=0;" parent="1" source="wCHP_Dc-bE9rDjU99wCx-23" target="wCHP_Dc-bE9rDjU99wCx-2" edge="1">
          <mxGeometry relative="1" as="geometry" />
        </mxCell>
        <mxCell id="wCHP_Dc-bE9rDjU99wCx-23" value="Fa" style="rhombus;whiteSpace=wrap;html=1;" parent="1" vertex="1">
          <mxGeometry x="1282" y="1294" width="40" height="40" as="geometry" />
        </mxCell>
        <mxCell id="wCHP_Dc-bE9rDjU99wCx-26" style="edgeStyle=orthogonalEdgeStyle;rounded=0;orthogonalLoop=1;jettySize=auto;html=1;entryX=0.5;entryY=1;entryDx=0;entryDy=0;endArrow=none;endFill=0;" parent="1" source="wCHP_Dc-bE9rDjU99wCx-25" target="wCHP_Dc-bE9rDjU99wCx-23" edge="1">
          <mxGeometry relative="1" as="geometry" />
        </mxCell>
        <mxCell id="wCHP_Dc-bE9rDjU99wCx-40" value="" style="edgeStyle=orthogonalEdgeStyle;rounded=0;orthogonalLoop=1;jettySize=auto;html=1;endArrow=none;endFill=0;" parent="1" source="wCHP_Dc-bE9rDjU99wCx-34" target="wCHP_Dc-bE9rDjU99wCx-36" edge="1">
          <mxGeometry relative="1" as="geometry" />
        </mxCell>
        <mxCell id="wCHP_Dc-bE9rDjU99wCx-25" value="&lt;font style=&quot;font-size: 17px;&quot;&gt;Album&lt;/font&gt;" style="rounded=0;whiteSpace=wrap;html=1;" parent="1" vertex="1">
          <mxGeometry x="1242" y="1384" width="120" height="60" as="geometry" />
        </mxCell>
        <mxCell id="wCHP_Dc-bE9rDjU99wCx-27" style="edgeStyle=orthogonalEdgeStyle;rounded=0;orthogonalLoop=1;jettySize=auto;html=1;endArrow=oval;endFill=0;" parent="1" edge="1">
          <mxGeometry relative="1" as="geometry">
            <mxPoint x="1188" y="1404" as="targetPoint" />
            <mxPoint x="1242" y="1404" as="sourcePoint" />
          </mxGeometry>
        </mxCell>
        <mxCell id="wCHP_Dc-bE9rDjU99wCx-28" value="&lt;font style=&quot;font-size: 7px;&quot;&gt;Nome&lt;/font&gt;" style="text;html=1;align=center;verticalAlign=middle;resizable=0;points=[];autosize=1;strokeColor=none;fillColor=none;" parent="1" vertex="1">
          <mxGeometry x="1147" y="1387" width="40" height="30" as="geometry" />
        </mxCell>
        <mxCell id="wCHP_Dc-bE9rDjU99wCx-29" value="" style="endArrow=none;html=1;rounded=0;" parent="1" edge="1">
          <mxGeometry width="50" height="50" relative="1" as="geometry">
            <mxPoint x="1212" y="1274" as="sourcePoint" />
            <mxPoint x="1302" y="1274" as="targetPoint" />
          </mxGeometry>
        </mxCell>
        <mxCell id="wCHP_Dc-bE9rDjU99wCx-30" value="" style="endArrow=oval;html=1;rounded=0;endFill=1;" parent="1" edge="1">
          <mxGeometry width="50" height="50" relative="1" as="geometry">
            <mxPoint x="1212" y="1274" as="sourcePoint" />
            <mxPoint x="1212" y="1424" as="targetPoint" />
          </mxGeometry>
        </mxCell>
        <mxCell id="wCHP_Dc-bE9rDjU99wCx-31" style="edgeStyle=orthogonalEdgeStyle;rounded=0;orthogonalLoop=1;jettySize=auto;html=1;endArrow=oval;endFill=0;" parent="1" edge="1">
          <mxGeometry relative="1" as="geometry">
            <mxPoint x="1187" y="1434" as="targetPoint" />
            <mxPoint x="1241" y="1434" as="sourcePoint" />
          </mxGeometry>
        </mxCell>
        <mxCell id="wCHP_Dc-bE9rDjU99wCx-32" value="&lt;font style=&quot;font-size: 7px;&quot;&gt;Genere&lt;/font&gt;" style="text;html=1;align=center;verticalAlign=middle;resizable=0;points=[];autosize=1;strokeColor=none;fillColor=none;" parent="1" vertex="1">
          <mxGeometry x="1142" y="1417" width="50" height="30" as="geometry" />
        </mxCell>
        <mxCell id="wCHP_Dc-bE9rDjU99wCx-36" value="&lt;font style=&quot;font-size: 17px;&quot;&gt;Brano&lt;/font&gt;" style="rounded=0;whiteSpace=wrap;html=1;" parent="1" vertex="1">
          <mxGeometry x="1470" y="1384" width="120" height="60" as="geometry" />
        </mxCell>
        <mxCell id="wCHP_Dc-bE9rDjU99wCx-41" value="" style="edgeStyle=orthogonalEdgeStyle;rounded=0;orthogonalLoop=1;jettySize=auto;html=1;endArrow=none;endFill=0;" parent="1" source="wCHP_Dc-bE9rDjU99wCx-25" target="wCHP_Dc-bE9rDjU99wCx-34" edge="1">
          <mxGeometry relative="1" as="geometry">
            <mxPoint x="1362" y="1414" as="sourcePoint" />
            <mxPoint x="1470" y="1414" as="targetPoint" />
          </mxGeometry>
        </mxCell>
        <mxCell id="wCHP_Dc-bE9rDjU99wCx-34" value="Comp" style="rhombus;whiteSpace=wrap;html=1;" parent="1" vertex="1">
          <mxGeometry x="1392" y="1391" width="46" height="46" as="geometry" />
        </mxCell>
        <mxCell id="wCHP_Dc-bE9rDjU99wCx-44" style="edgeStyle=orthogonalEdgeStyle;rounded=0;orthogonalLoop=1;jettySize=auto;html=1;" parent="1" source="wCHP_Dc-bE9rDjU99wCx-43" edge="1">
          <mxGeometry relative="1" as="geometry">
            <mxPoint x="1530" y="1137" as="targetPoint" />
            <Array as="points">
              <mxPoint x="1770" y="1167" />
              <mxPoint x="1530" y="1167" />
            </Array>
          </mxGeometry>
        </mxCell>
        <mxCell id="wCHP_Dc-bE9rDjU99wCx-43" value="&lt;font style=&quot;font-size: 17px;&quot;&gt;Giuria&lt;/font&gt;" style="rounded=0;whiteSpace=wrap;html=1;" parent="1" vertex="1">
          <mxGeometry x="1710" y="1196" width="120" height="60" as="geometry" />
        </mxCell>
        <mxCell id="wCHP_Dc-bE9rDjU99wCx-46" value="" style="edgeStyle=orthogonalEdgeStyle;rounded=0;orthogonalLoop=1;jettySize=auto;html=1;endArrow=none;endFill=0;" parent="1" source="wCHP_Dc-bE9rDjU99wCx-45" target="wCHP_Dc-bE9rDjU99wCx-3" edge="1">
          <mxGeometry relative="1" as="geometry" />
        </mxCell>
        <mxCell id="wCHP_Dc-bE9rDjU99wCx-49" value="" style="edgeStyle=orthogonalEdgeStyle;rounded=0;orthogonalLoop=1;jettySize=auto;html=1;endArrow=none;endFill=0;" parent="1" source="wCHP_Dc-bE9rDjU99wCx-45" target="wCHP_Dc-bE9rDjU99wCx-36" edge="1">
          <mxGeometry relative="1" as="geometry">
            <Array as="points">
              <mxPoint x="1529" y="1387" />
              <mxPoint x="1529" y="1387" />
            </Array>
          </mxGeometry>
        </mxCell>
        <mxCell id="BbvUgIs7BHoKyrE0JcpK-2" style="edgeStyle=orthogonalEdgeStyle;rounded=0;orthogonalLoop=1;jettySize=auto;html=1;endArrow=oval;endFill=0;" parent="1" source="wCHP_Dc-bE9rDjU99wCx-45" edge="1">
          <mxGeometry relative="1" as="geometry">
            <mxPoint x="1470" y="1314" as="targetPoint" />
          </mxGeometry>
        </mxCell>
        <mxCell id="Ueu6p_vTCTjkxsaH0La5-2" style="edgeStyle=orthogonalEdgeStyle;rounded=0;orthogonalLoop=1;jettySize=auto;html=1;entryX=0.75;entryY=1;entryDx=0;entryDy=0;endArrow=none;endFill=0;" edge="1" parent="1" source="wCHP_Dc-bE9rDjU99wCx-45" target="wCHP_Dc-bE9rDjU99wCx-43">
          <mxGeometry relative="1" as="geometry">
            <Array as="points">
              <mxPoint x="1800" y="1300" />
            </Array>
          </mxGeometry>
        </mxCell>
        <mxCell id="wCHP_Dc-bE9rDjU99wCx-45" value="Valuta" style="rhombus;whiteSpace=wrap;html=1;" parent="1" vertex="1">
          <mxGeometry x="1499" y="1289" width="60" height="50" as="geometry" />
        </mxCell>
        <mxCell id="wCHP_Dc-bE9rDjU99wCx-50" style="edgeStyle=orthogonalEdgeStyle;rounded=0;orthogonalLoop=1;jettySize=auto;html=1;endArrow=oval;endFill=0;exitX=0.25;exitY=1;exitDx=0;exitDy=0;" parent="1" edge="1">
          <mxGeometry relative="1" as="geometry">
            <mxPoint x="1490" y="1487" as="targetPoint" />
            <mxPoint x="1490" y="1444" as="sourcePoint" />
          </mxGeometry>
        </mxCell>
        <mxCell id="wCHP_Dc-bE9rDjU99wCx-53" style="edgeStyle=orthogonalEdgeStyle;rounded=0;orthogonalLoop=1;jettySize=auto;html=1;entryX=0.5;entryY=0;entryDx=0;entryDy=0;" parent="1" source="wCHP_Dc-bE9rDjU99wCx-51" target="wCHP_Dc-bE9rDjU99wCx-2" edge="1">
          <mxGeometry relative="1" as="geometry" />
        </mxCell>
        <mxCell id="wCHP_Dc-bE9rDjU99wCx-51" value="&lt;font style=&quot;font-size: 17px;&quot;&gt;Vincitore&lt;/font&gt;" style="rounded=0;whiteSpace=wrap;html=1;" parent="1" vertex="1">
          <mxGeometry x="1242" y="1035" width="120" height="60" as="geometry" />
        </mxCell>
        <mxCell id="wCHP_Dc-bE9rDjU99wCx-54" value="" style="endArrow=none;html=1;rounded=0;" parent="1" edge="1">
          <mxGeometry width="50" height="50" relative="1" as="geometry">
            <mxPoint x="1377" y="1466" as="sourcePoint" />
            <mxPoint x="1377" y="1416" as="targetPoint" />
          </mxGeometry>
        </mxCell>
        <mxCell id="wCHP_Dc-bE9rDjU99wCx-55" value="" style="endArrow=oval;html=1;rounded=0;endFill=1;" parent="1" edge="1">
          <mxGeometry width="50" height="50" relative="1" as="geometry">
            <mxPoint x="1377" y="1466" as="sourcePoint" />
            <mxPoint x="1507" y="1466" as="targetPoint" />
          </mxGeometry>
        </mxCell>
        <mxCell id="wCHP_Dc-bE9rDjU99wCx-56" value="&lt;font style=&quot;font-size: 7px;&quot;&gt;Nome&lt;/font&gt;" style="text;html=1;align=center;verticalAlign=middle;resizable=0;points=[];autosize=1;strokeColor=none;fillColor=none;" parent="1" vertex="1">
          <mxGeometry x="1470" y="1482" width="40" height="30" as="geometry" />
        </mxCell>
        <mxCell id="wCHP_Dc-bE9rDjU99wCx-57" style="edgeStyle=orthogonalEdgeStyle;rounded=0;orthogonalLoop=1;jettySize=auto;html=1;endArrow=oval;endFill=0;exitX=0.25;exitY=1;exitDx=0;exitDy=0;" parent="1" edge="1">
          <mxGeometry relative="1" as="geometry">
            <mxPoint x="1535" y="1487" as="targetPoint" />
            <mxPoint x="1535" y="1444" as="sourcePoint" />
            <Array as="points">
              <mxPoint x="1535" y="1457" />
              <mxPoint x="1535" y="1457" />
            </Array>
          </mxGeometry>
        </mxCell>
        <mxCell id="wCHP_Dc-bE9rDjU99wCx-58" value="&lt;font style=&quot;font-size: 7px;&quot;&gt;Genere&lt;/font&gt;" style="text;html=1;align=center;verticalAlign=middle;resizable=0;points=[];autosize=1;strokeColor=none;fillColor=none;" parent="1" vertex="1">
          <mxGeometry x="1509" y="1482" width="50" height="30" as="geometry" />
        </mxCell>
        <mxCell id="wCHP_Dc-bE9rDjU99wCx-59" style="edgeStyle=orthogonalEdgeStyle;rounded=0;orthogonalLoop=1;jettySize=auto;html=1;endArrow=oval;endFill=0;exitX=0.25;exitY=1;exitDx=0;exitDy=0;" parent="1" edge="1">
          <mxGeometry relative="1" as="geometry">
            <mxPoint x="1579" y="1487" as="targetPoint" />
            <mxPoint x="1579" y="1444" as="sourcePoint" />
            <Array as="points">
              <mxPoint x="1579" y="1457" />
              <mxPoint x="1579" y="1457" />
            </Array>
          </mxGeometry>
        </mxCell>
        <mxCell id="wCHP_Dc-bE9rDjU99wCx-60" value="&lt;font style=&quot;font-size: 7px;&quot;&gt;Durata&lt;/font&gt;" style="text;html=1;align=center;verticalAlign=middle;resizable=0;points=[];autosize=1;strokeColor=none;fillColor=none;" parent="1" vertex="1">
          <mxGeometry x="1559" y="1482" width="40" height="30" as="geometry" />
        </mxCell>
        <mxCell id="wCHP_Dc-bE9rDjU99wCx-62" value="Di" style="rhombus;whiteSpace=wrap;html=1;" parent="1" vertex="1">
          <mxGeometry x="1620" y="1384" width="60" height="60" as="geometry" />
        </mxCell>
        <mxCell id="wCHP_Dc-bE9rDjU99wCx-63" value="" style="edgeStyle=orthogonalEdgeStyle;rounded=0;orthogonalLoop=1;jettySize=auto;html=1;endArrow=none;endFill=0;entryX=0;entryY=0.5;entryDx=0;entryDy=0;" parent="1" target="wCHP_Dc-bE9rDjU99wCx-62" edge="1">
          <mxGeometry relative="1" as="geometry">
            <mxPoint x="1590" y="1413.76" as="sourcePoint" />
            <mxPoint x="1615" y="1413.76" as="targetPoint" />
          </mxGeometry>
        </mxCell>
        <mxCell id="wCHP_Dc-bE9rDjU99wCx-66" value="&lt;font style=&quot;font-size: 7px;&quot;&gt;Voto&lt;/font&gt;" style="text;html=1;align=center;verticalAlign=middle;resizable=0;points=[];autosize=1;strokeColor=none;fillColor=none;" parent="1" vertex="1">
          <mxGeometry x="1433" y="1297" width="40" height="30" as="geometry" />
        </mxCell>
        <mxCell id="wCHP_Dc-bE9rDjU99wCx-67" value="&lt;font style=&quot;font-size: 17px;&quot;&gt;Recensione&lt;/font&gt;" style="rounded=0;whiteSpace=wrap;html=1;" parent="1" vertex="1">
          <mxGeometry x="1710" y="1387" width="120" height="60" as="geometry" />
        </mxCell>
        <mxCell id="wCHP_Dc-bE9rDjU99wCx-68" value="" style="edgeStyle=orthogonalEdgeStyle;rounded=0;orthogonalLoop=1;jettySize=auto;html=1;endArrow=none;endFill=0;entryX=0;entryY=0.5;entryDx=0;entryDy=0;" parent="1" edge="1">
          <mxGeometry relative="1" as="geometry">
            <mxPoint x="1680" y="1413.88" as="sourcePoint" />
            <mxPoint x="1710" y="1414.12" as="targetPoint" />
          </mxGeometry>
        </mxCell>
        <mxCell id="wCHP_Dc-bE9rDjU99wCx-70" style="edgeStyle=orthogonalEdgeStyle;rounded=0;orthogonalLoop=1;jettySize=auto;html=1;endArrow=oval;endFill=0;" parent="1" edge="1">
          <mxGeometry relative="1" as="geometry">
            <mxPoint x="1870" y="1407" as="targetPoint" />
            <mxPoint x="1830" y="1407" as="sourcePoint" />
          </mxGeometry>
        </mxCell>
        <mxCell id="wCHP_Dc-bE9rDjU99wCx-71" value="&lt;font style=&quot;font-size: 7px;&quot;&gt;Desc&lt;/font&gt;" style="text;html=1;align=center;verticalAlign=middle;resizable=0;points=[];autosize=1;strokeColor=none;fillColor=none;" parent="1" vertex="1">
          <mxGeometry x="1869" y="1390" width="40" height="30" as="geometry" />
        </mxCell>
        <mxCell id="wCHP_Dc-bE9rDjU99wCx-73" value="" style="endArrow=none;html=1;rounded=0;" parent="1" edge="1">
          <mxGeometry width="50" height="50" relative="1" as="geometry">
            <mxPoint x="1605" y="1414" as="sourcePoint" />
            <mxPoint x="1605" y="1367" as="targetPoint" />
          </mxGeometry>
        </mxCell>
        <mxCell id="wCHP_Dc-bE9rDjU99wCx-74" value="" style="endArrow=oval;html=1;rounded=0;endFill=1;" parent="1" edge="1">
          <mxGeometry width="50" height="50" relative="1" as="geometry">
            <mxPoint x="1605" y="1367" as="sourcePoint" />
            <mxPoint x="1820" y="1367" as="targetPoint" />
          </mxGeometry>
        </mxCell>
        <mxCell id="wCHP_Dc-bE9rDjU99wCx-75" value="" style="endArrow=oval;html=1;rounded=0;exitX=0.086;exitY=-0.014;exitDx=0;exitDy=0;exitPerimeter=0;endFill=0;" parent="1" source="wCHP_Dc-bE9rDjU99wCx-67" edge="1">
          <mxGeometry width="50" height="50" relative="1" as="geometry">
            <mxPoint x="1670" y="1407" as="sourcePoint" />
            <mxPoint x="1720" y="1347" as="targetPoint" />
          </mxGeometry>
        </mxCell>
        <mxCell id="wCHP_Dc-bE9rDjU99wCx-78" style="edgeStyle=orthogonalEdgeStyle;rounded=0;orthogonalLoop=1;jettySize=auto;html=1;endArrow=none;endFill=0;entryX=1;entryY=0.5;entryDx=0;entryDy=0;" parent="1" source="wCHP_Dc-bE9rDjU99wCx-76" target="wCHP_Dc-bE9rDjU99wCx-3" edge="1">
          <mxGeometry relative="1" as="geometry">
            <mxPoint x="1590" y="1226" as="targetPoint" />
          </mxGeometry>
        </mxCell>
        <mxCell id="wCHP_Dc-bE9rDjU99wCx-79" style="edgeStyle=orthogonalEdgeStyle;rounded=0;orthogonalLoop=1;jettySize=auto;html=1;entryX=0.5;entryY=0;entryDx=0;entryDy=0;endArrow=none;endFill=0;" parent="1" edge="1">
          <mxGeometry relative="1" as="geometry">
            <Array as="points">
              <mxPoint x="1650" y="1310" />
              <mxPoint x="1770" y="1310" />
            </Array>
            <mxPoint x="1650" y="1240.9935" as="sourcePoint" />
            <mxPoint x="1770" y="1387" as="targetPoint" />
          </mxGeometry>
        </mxCell>
        <mxCell id="Ueu6p_vTCTjkxsaH0La5-1" style="edgeStyle=orthogonalEdgeStyle;rounded=0;orthogonalLoop=1;jettySize=auto;html=1;entryX=0;entryY=0.5;entryDx=0;entryDy=0;endArrow=none;endFill=0;" edge="1" parent="1" source="wCHP_Dc-bE9rDjU99wCx-76" target="wCHP_Dc-bE9rDjU99wCx-43">
          <mxGeometry relative="1" as="geometry" />
        </mxCell>
        <mxCell id="wCHP_Dc-bE9rDjU99wCx-76" value="Fa" style="rhombus;whiteSpace=wrap;html=1;" parent="1" vertex="1">
          <mxGeometry x="1630" y="1209.33" width="40" height="33.33" as="geometry" />
        </mxCell>
        <mxCell id="wCHP_Dc-bE9rDjU99wCx-81" value="" style="endArrow=oval;html=1;rounded=0;endFill=1;" parent="1" edge="1">
          <mxGeometry width="50" height="50" relative="1" as="geometry">
            <mxPoint x="1700" y="1377" as="sourcePoint" />
            <mxPoint x="1730" y="1377" as="targetPoint" />
          </mxGeometry>
        </mxCell>
        <mxCell id="wCHP_Dc-bE9rDjU99wCx-83" style="edgeStyle=orthogonalEdgeStyle;rounded=0;orthogonalLoop=1;jettySize=auto;html=1;entryX=1;entryY=0.5;entryDx=0;entryDy=0;endArrow=none;endFill=0;" parent="1" source="wCHP_Dc-bE9rDjU99wCx-82" target="wCHP_Dc-bE9rDjU99wCx-43" edge="1">
          <mxGeometry relative="1" as="geometry" />
        </mxCell>
        <mxCell id="wCHP_Dc-bE9rDjU99wCx-84" style="edgeStyle=orthogonalEdgeStyle;rounded=0;orthogonalLoop=1;jettySize=auto;html=1;endArrow=none;endFill=0;" parent="1" edge="1">
          <mxGeometry relative="1" as="geometry">
            <mxPoint x="1770" y="1380" as="targetPoint" />
            <Array as="points">
              <mxPoint x="1899" y="1310" />
              <mxPoint x="1770" y="1310" />
            </Array>
            <mxPoint x="1899" y="1244" as="sourcePoint" />
          </mxGeometry>
        </mxCell>
        <mxCell id="wCHP_Dc-bE9rDjU99wCx-82" value="Fa" style="rhombus;whiteSpace=wrap;html=1;" parent="1" vertex="1">
          <mxGeometry x="1869" y="1201" width="60" height="50" as="geometry" />
        </mxCell>
        <mxCell id="wCHP_Dc-bE9rDjU99wCx-85" value="&lt;font style=&quot;font-size: 7px;&quot;&gt;Cod.spettatore&lt;/font&gt;" style="text;html=1;align=center;verticalAlign=middle;resizable=0;points=[];autosize=1;strokeColor=none;fillColor=none;" parent="1" vertex="1">
          <mxGeometry x="1690" y="1319" width="70" height="30" as="geometry" />
        </mxCell>
        <mxCell id="wCHP_Dc-bE9rDjU99wCx-86" value="" style="endArrow=oval;html=1;rounded=0;exitX=0.086;exitY=-0.014;exitDx=0;exitDy=0;exitPerimeter=0;endFill=0;" parent="1" edge="1">
          <mxGeometry width="50" height="50" relative="1" as="geometry">
            <mxPoint x="1810" y="1387" as="sourcePoint" />
            <mxPoint x="1810" y="1348" as="targetPoint" />
          </mxGeometry>
        </mxCell>
        <mxCell id="wCHP_Dc-bE9rDjU99wCx-87" value="&lt;div&gt;&lt;font style=&quot;font-size: 7px;&quot;&gt;Cod.giuria&lt;/font&gt;&lt;/div&gt;&lt;div&gt;&lt;font style=&quot;font-size: 7px;&quot;&gt;&lt;br&gt;&lt;/font&gt;&lt;/div&gt;" style="text;html=1;align=center;verticalAlign=middle;resizable=0;points=[];autosize=1;strokeColor=none;fillColor=none;" parent="1" vertex="1">
          <mxGeometry x="1780" y="1321" width="60" height="40" as="geometry" />
        </mxCell>
        <mxCell id="wCHP_Dc-bE9rDjU99wCx-88" value="" style="endArrow=none;html=1;rounded=0;" parent="1" edge="1">
          <mxGeometry width="50" height="50" relative="1" as="geometry">
            <mxPoint x="1880" y="1377" as="sourcePoint" />
            <mxPoint x="1880" y="1310" as="targetPoint" />
          </mxGeometry>
        </mxCell>
        <mxCell id="wCHP_Dc-bE9rDjU99wCx-89" value="" style="endArrow=oval;html=1;rounded=0;endFill=1;" parent="1" edge="1">
          <mxGeometry width="50" height="50" relative="1" as="geometry">
            <mxPoint x="1880" y="1377" as="sourcePoint" />
            <mxPoint x="1790" y="1377" as="targetPoint" />
          </mxGeometry>
        </mxCell>
        <mxCell id="wCHP_Dc-bE9rDjU99wCx-91" style="edgeStyle=orthogonalEdgeStyle;rounded=0;orthogonalLoop=1;jettySize=auto;html=1;entryX=1;entryY=0;entryDx=0;entryDy=0;endArrow=none;endFill=0;" parent="1" source="wCHP_Dc-bE9rDjU99wCx-90" target="wCHP_Dc-bE9rDjU99wCx-43" edge="1">
          <mxGeometry relative="1" as="geometry">
            <Array as="points">
              <mxPoint x="1800" y="1196" />
            </Array>
          </mxGeometry>
        </mxCell>
        <mxCell id="wCHP_Dc-bE9rDjU99wCx-92" style="edgeStyle=orthogonalEdgeStyle;rounded=0;orthogonalLoop=1;jettySize=auto;html=1;entryX=0.5;entryY=0;entryDx=0;entryDy=0;endArrow=none;endFill=0;" parent="1" source="wCHP_Dc-bE9rDjU99wCx-90" target="wCHP_Dc-bE9rDjU99wCx-51" edge="1">
          <mxGeometry relative="1" as="geometry">
            <Array as="points">
              <mxPoint x="1800" y="997" />
              <mxPoint x="1302" y="997" />
            </Array>
          </mxGeometry>
        </mxCell>
        <mxCell id="wCHP_Dc-bE9rDjU99wCx-90" value="Sceglie" style="rhombus;whiteSpace=wrap;html=1;" parent="1" vertex="1">
          <mxGeometry x="1760" y="1025" width="80" height="80" as="geometry" />
        </mxCell>
        <mxCell id="wCHP_Dc-bE9rDjU99wCx-96" value="Compra" style="rhombus;whiteSpace=wrap;html=1;" parent="1" vertex="1">
          <mxGeometry x="1620" y="910" width="80" height="80" as="geometry" />
        </mxCell>
        <mxCell id="wCHP_Dc-bE9rDjU99wCx-100" style="edgeStyle=orthogonalEdgeStyle;rounded=0;orthogonalLoop=1;jettySize=auto;html=1;entryX=0.25;entryY=0;entryDx=0;entryDy=0;endArrow=none;endFill=0;" parent="1" source="wCHP_Dc-bE9rDjU99wCx-97" target="wCHP_Dc-bE9rDjU99wCx-3" edge="1">
          <mxGeometry relative="1" as="geometry">
            <Array as="points">
              <mxPoint x="1415" y="1196" />
            </Array>
          </mxGeometry>
        </mxCell>
        <mxCell id="wCHP_Dc-bE9rDjU99wCx-97" value="Vende" style="rhombus;whiteSpace=wrap;html=1;" parent="1" vertex="1">
          <mxGeometry x="1375" y="910" width="80" height="80" as="geometry" />
        </mxCell>
        <mxCell id="wCHP_Dc-bE9rDjU99wCx-104" style="edgeStyle=orthogonalEdgeStyle;rounded=0;orthogonalLoop=1;jettySize=auto;html=1;entryX=0.5;entryY=0;entryDx=0;entryDy=0;endArrow=none;endFill=0;" parent="1" source="wCHP_Dc-bE9rDjU99wCx-102" target="wCHP_Dc-bE9rDjU99wCx-97" edge="1">
          <mxGeometry relative="1" as="geometry" />
        </mxCell>
        <mxCell id="wCHP_Dc-bE9rDjU99wCx-105" style="edgeStyle=orthogonalEdgeStyle;rounded=0;orthogonalLoop=1;jettySize=auto;html=1;entryX=0.5;entryY=0;entryDx=0;entryDy=0;endArrow=none;endFill=0;" parent="1" source="wCHP_Dc-bE9rDjU99wCx-102" target="wCHP_Dc-bE9rDjU99wCx-96" edge="1">
          <mxGeometry relative="1" as="geometry" />
        </mxCell>
        <mxCell id="wCHP_Dc-bE9rDjU99wCx-106" style="edgeStyle=orthogonalEdgeStyle;rounded=0;orthogonalLoop=1;jettySize=auto;html=1;endArrow=oval;endFill=0;" parent="1" edge="1">
          <mxGeometry relative="1" as="geometry">
            <mxPoint x="1499" y="821" as="targetPoint" />
            <mxPoint x="1499" y="861" as="sourcePoint" />
            <Array as="points">
              <mxPoint x="1499" y="831" />
              <mxPoint x="1499" y="831" />
            </Array>
          </mxGeometry>
        </mxCell>
        <mxCell id="wCHP_Dc-bE9rDjU99wCx-111" style="edgeStyle=orthogonalEdgeStyle;rounded=0;orthogonalLoop=1;jettySize=auto;html=1;endArrow=none;endFill=0;" parent="1" source="wCHP_Dc-bE9rDjU99wCx-102" edge="1">
          <mxGeometry relative="1" as="geometry">
            <mxPoint x="1539" y="790" as="targetPoint" />
          </mxGeometry>
        </mxCell>
        <mxCell id="wCHP_Dc-bE9rDjU99wCx-102" value="&lt;font style=&quot;font-size: 17px;&quot;&gt;Biglietto&lt;/font&gt;" style="rounded=0;whiteSpace=wrap;html=1;" parent="1" vertex="1">
          <mxGeometry x="1479" y="860" width="120" height="60" as="geometry" />
        </mxCell>
        <mxCell id="wCHP_Dc-bE9rDjU99wCx-108" value="&lt;font style=&quot;font-size: 7px;&quot;&gt;Costo&lt;/font&gt;" style="text;html=1;align=center;verticalAlign=middle;resizable=0;points=[];autosize=1;strokeColor=none;fillColor=none;" parent="1" vertex="1">
          <mxGeometry x="1479" y="792" width="40" height="30" as="geometry" />
        </mxCell>
        <mxCell id="wCHP_Dc-bE9rDjU99wCx-109" style="edgeStyle=orthogonalEdgeStyle;rounded=0;orthogonalLoop=1;jettySize=auto;html=1;endArrow=oval;endFill=0;" parent="1" edge="1">
          <mxGeometry relative="1" as="geometry">
            <mxPoint x="1578.8" y="821" as="targetPoint" />
            <mxPoint x="1578.8" y="861" as="sourcePoint" />
            <Array as="points">
              <mxPoint x="1578.8" y="831" />
              <mxPoint x="1578.8" y="831" />
            </Array>
          </mxGeometry>
        </mxCell>
        <mxCell id="wCHP_Dc-bE9rDjU99wCx-110" value="&lt;font style=&quot;font-size: 7px;&quot;&gt;Codice&lt;/font&gt;" style="text;html=1;align=center;verticalAlign=middle;resizable=0;points=[];autosize=1;strokeColor=none;fillColor=none;" parent="1" vertex="1">
          <mxGeometry x="1554" y="792" width="50" height="30" as="geometry" />
        </mxCell>
        <mxCell id="wCHP_Dc-bE9rDjU99wCx-115" style="edgeStyle=orthogonalEdgeStyle;rounded=0;orthogonalLoop=1;jettySize=auto;html=1;entryX=0.5;entryY=1;entryDx=0;entryDy=0;endArrow=none;endFill=0;" parent="1" source="wCHP_Dc-bE9rDjU99wCx-112" target="wCHP_Dc-bE9rDjU99wCx-113" edge="1">
          <mxGeometry relative="1" as="geometry" />
        </mxCell>
        <mxCell id="wCHP_Dc-bE9rDjU99wCx-112" value="In" style="rhombus;whiteSpace=wrap;html=1;" parent="1" vertex="1">
          <mxGeometry x="1524" y="792" width="30" height="30" as="geometry" />
        </mxCell>
        <mxCell id="wCHP_Dc-bE9rDjU99wCx-113" value="&lt;font style=&quot;font-size: 17px;&quot;&gt;Punto&lt;br&gt;Vendita&lt;/font&gt;" style="rounded=0;whiteSpace=wrap;html=1;" parent="1" vertex="1">
          <mxGeometry x="1479" y="700" width="120" height="60" as="geometry" />
        </mxCell>
        <mxCell id="wCHP_Dc-bE9rDjU99wCx-117" style="edgeStyle=orthogonalEdgeStyle;rounded=0;orthogonalLoop=1;jettySize=auto;html=1;endArrow=oval;endFill=1;" parent="1" edge="1">
          <mxGeometry relative="1" as="geometry">
            <mxPoint x="1538.8" y="660" as="targetPoint" />
            <mxPoint x="1538.8" y="700" as="sourcePoint" />
            <Array as="points">
              <mxPoint x="1538.8" y="670" />
              <mxPoint x="1538.8" y="670" />
            </Array>
          </mxGeometry>
        </mxCell>
        <mxCell id="wCHP_Dc-bE9rDjU99wCx-118" value="&lt;font style=&quot;font-size: 7px;&quot;&gt;Codice&lt;/font&gt;" style="text;html=1;align=center;verticalAlign=middle;resizable=0;points=[];autosize=1;strokeColor=none;fillColor=none;" parent="1" vertex="1">
          <mxGeometry x="1513" y="630" width="50" height="30" as="geometry" />
        </mxCell>
        <mxCell id="wCHP_Dc-bE9rDjU99wCx-119" value="&lt;font style=&quot;font-size: 12px;&quot;&gt;(1,n)&lt;/font&gt;" style="text;html=1;align=center;verticalAlign=middle;resizable=0;points=[];autosize=1;strokeColor=none;fillColor=none;" parent="1" vertex="1">
          <mxGeometry x="1295" y="1251" width="50" height="30" as="geometry" />
        </mxCell>
        <mxCell id="wCHP_Dc-bE9rDjU99wCx-120" value="&lt;font style=&quot;font-size: 12px;&quot;&gt;(1,1)&lt;/font&gt;" style="text;html=1;align=center;verticalAlign=middle;resizable=0;points=[];autosize=1;strokeColor=none;fillColor=none;" parent="1" vertex="1">
          <mxGeometry x="1295" y="1357" width="50" height="30" as="geometry" />
        </mxCell>
        <mxCell id="wCHP_Dc-bE9rDjU99wCx-121" value="&lt;font style=&quot;font-size: 12px;&quot;&gt;(1,1)&lt;/font&gt;" style="text;html=1;align=center;verticalAlign=middle;resizable=0;points=[];autosize=1;strokeColor=none;fillColor=none;" parent="1" vertex="1">
          <mxGeometry x="1426" y="1387" width="50" height="30" as="geometry" />
        </mxCell>
        <mxCell id="wCHP_Dc-bE9rDjU99wCx-122" value="&lt;font style=&quot;font-size: 12px;&quot;&gt;(1,n)&lt;/font&gt;" style="text;html=1;align=center;verticalAlign=middle;resizable=0;points=[];autosize=1;strokeColor=none;fillColor=none;" parent="1" vertex="1">
          <mxGeometry x="1353" y="1387" width="50" height="30" as="geometry" />
        </mxCell>
        <mxCell id="wCHP_Dc-bE9rDjU99wCx-123" value="&lt;font style=&quot;font-size: 12px;&quot;&gt;(0,n)&lt;/font&gt;" style="text;html=1;align=center;verticalAlign=middle;resizable=0;points=[];autosize=1;strokeColor=none;fillColor=none;" parent="1" vertex="1">
          <mxGeometry x="1581" y="1409" width="50" height="30" as="geometry" />
        </mxCell>
        <mxCell id="wCHP_Dc-bE9rDjU99wCx-124" value="&lt;font style=&quot;font-size: 12px;&quot;&gt;(0,n)&lt;/font&gt;" style="text;html=1;align=center;verticalAlign=middle;resizable=0;points=[];autosize=1;strokeColor=none;fillColor=none;" parent="1" vertex="1">
          <mxGeometry x="1521" y="1357" width="50" height="30" as="geometry" />
        </mxCell>
        <mxCell id="wCHP_Dc-bE9rDjU99wCx-125" value="&lt;font style=&quot;font-size: 12px;&quot;&gt;(0,n)&lt;/font&gt;" style="text;html=1;align=center;verticalAlign=middle;resizable=0;points=[];autosize=1;strokeColor=none;fillColor=none;" parent="1" vertex="1">
          <mxGeometry x="1521" y="1251" width="50" height="30" as="geometry" />
        </mxCell>
        <mxCell id="wCHP_Dc-bE9rDjU99wCx-127" value="&lt;font style=&quot;font-size: 12px;&quot;&gt;(1,1)&lt;/font&gt;" style="text;html=1;align=center;verticalAlign=middle;resizable=0;points=[];autosize=1;strokeColor=none;fillColor=none;" parent="1" vertex="1">
          <mxGeometry x="1668" y="1409" width="50" height="30" as="geometry" />
        </mxCell>
        <mxCell id="wCHP_Dc-bE9rDjU99wCx-128" value="&lt;font style=&quot;font-size: 12px;&quot;&gt;(1,1)&lt;/font&gt;" style="text;html=1;align=center;verticalAlign=middle;resizable=0;points=[];autosize=1;strokeColor=none;fillColor=none;" parent="1" vertex="1">
          <mxGeometry x="1726" y="1361" width="50" height="30" as="geometry" />
        </mxCell>
        <mxCell id="wCHP_Dc-bE9rDjU99wCx-129" value="&lt;font style=&quot;font-size: 12px;&quot;&gt;(1,n)&lt;/font&gt;" style="text;html=1;align=center;verticalAlign=middle;resizable=0;points=[];autosize=1;strokeColor=none;fillColor=none;" parent="1" vertex="1">
          <mxGeometry x="1584" y="1221" width="50" height="30" as="geometry" />
        </mxCell>
        <mxCell id="wCHP_Dc-bE9rDjU99wCx-130" value="&lt;font style=&quot;font-size: 12px;&quot;&gt;(0,n)&lt;/font&gt;" style="text;html=1;align=center;verticalAlign=middle;resizable=0;points=[];autosize=1;strokeColor=none;fillColor=none;" parent="1" vertex="1">
          <mxGeometry x="1419" y="1191" width="50" height="30" as="geometry" />
        </mxCell>
        <mxCell id="wCHP_Dc-bE9rDjU99wCx-131" value="&lt;font style=&quot;font-size: 12px;&quot;&gt;(1,n)&lt;/font&gt;" style="text;html=1;align=center;verticalAlign=middle;resizable=0;points=[];autosize=1;strokeColor=none;fillColor=none;" parent="1" vertex="1">
          <mxGeometry x="1584" y="1191" width="50" height="30" as="geometry" />
        </mxCell>
        <mxCell id="wCHP_Dc-bE9rDjU99wCx-133" value="&lt;font style=&quot;font-size: 12px;&quot;&gt;(1,1)&lt;/font&gt;" style="text;html=1;align=center;verticalAlign=middle;resizable=0;points=[];autosize=1;strokeColor=none;fillColor=none;" parent="1" vertex="1">
          <mxGeometry x="1591" y="886" width="50" height="30" as="geometry" />
        </mxCell>
        <mxCell id="wCHP_Dc-bE9rDjU99wCx-134" value="&lt;font style=&quot;font-size: 12px;&quot;&gt;(1,1)&lt;/font&gt;" style="text;html=1;align=center;verticalAlign=middle;resizable=0;points=[];autosize=1;strokeColor=none;fillColor=none;" parent="1" vertex="1">
          <mxGeometry x="1434" y="886" width="50" height="30" as="geometry" />
        </mxCell>
        <mxCell id="wCHP_Dc-bE9rDjU99wCx-140" value="" style="endArrow=oval;html=1;rounded=0;endFill=0;" parent="1" edge="1">
          <mxGeometry width="50" height="50" relative="1" as="geometry">
            <mxPoint x="1521" y="1057" as="sourcePoint" />
            <mxPoint x="1571" y="1057" as="targetPoint" />
          </mxGeometry>
        </mxCell>
        <mxCell id="wCHP_Dc-bE9rDjU99wCx-144" value="(nt, e)" style="text;html=1;align=center;verticalAlign=middle;resizable=0;points=[];autosize=1;strokeColor=none;fillColor=none;" parent="1" vertex="1">
          <mxGeometry x="1299" y="1093" width="50" height="30" as="geometry" />
        </mxCell>
        <mxCell id="wCHP_Dc-bE9rDjU99wCx-145" value="(t, e)" style="text;html=1;align=center;verticalAlign=middle;resizable=0;points=[];autosize=1;strokeColor=none;fillColor=none;" parent="1" vertex="1">
          <mxGeometry x="1533" y="1137" width="50" height="30" as="geometry" />
        </mxCell>
        <mxCell id="wCHP_Dc-bE9rDjU99wCx-146" value="&lt;font style=&quot;font-size: 12px;&quot;&gt;(1,n)&lt;/font&gt;" style="text;html=1;align=center;verticalAlign=middle;resizable=0;points=[];autosize=1;strokeColor=none;fillColor=none;" parent="1" vertex="1">
          <mxGeometry x="1830" y="1221" width="50" height="30" as="geometry" />
        </mxCell>
        <mxCell id="wCHP_Dc-bE9rDjU99wCx-147" value="&lt;font style=&quot;font-size: 12px;&quot;&gt;(1,n)&lt;/font&gt;" style="text;html=1;align=center;verticalAlign=middle;resizable=0;points=[];autosize=1;strokeColor=none;fillColor=none;" parent="1" vertex="1">
          <mxGeometry x="1790" y="1167" width="50" height="30" as="geometry" />
        </mxCell>
        <mxCell id="wCHP_Dc-bE9rDjU99wCx-148" value="(1,1)" style="text;html=1;align=center;verticalAlign=middle;resizable=0;points=[];autosize=1;strokeColor=none;fillColor=none;" parent="1" vertex="1">
          <mxGeometry x="1295" y="1005" width="50" height="30" as="geometry" />
        </mxCell>
        <mxCell id="wCHP_Dc-bE9rDjU99wCx-149" value="(1,n)" style="text;html=1;align=center;verticalAlign=middle;resizable=0;points=[];autosize=1;strokeColor=none;fillColor=none;" parent="1" vertex="1">
          <mxGeometry x="1531" y="830" width="50" height="30" as="geometry" />
        </mxCell>
        <mxCell id="wCHP_Dc-bE9rDjU99wCx-150" value="(0,n)" style="text;html=1;align=center;verticalAlign=middle;resizable=0;points=[];autosize=1;strokeColor=none;fillColor=none;" parent="1" vertex="1">
          <mxGeometry x="1531" y="757" width="50" height="30" as="geometry" />
        </mxCell>
        <mxCell id="BbvUgIs7BHoKyrE0JcpK-5" value="&lt;font style=&quot;font-size: 12px;&quot;&gt;(1,n)&lt;/font&gt;" style="text;html=1;align=center;verticalAlign=middle;resizable=0;points=[];autosize=1;strokeColor=none;fillColor=none;" parent="1" vertex="1">
          <mxGeometry x="1726" y="1251" width="50" height="30" as="geometry" />
        </mxCell>
        <mxCell id="BbvUgIs7BHoKyrE0JcpK-8" value="" style="endArrow=none;html=1;rounded=0;" parent="1" edge="1">
          <mxGeometry width="50" height="50" relative="1" as="geometry">
            <mxPoint x="1700" y="1377.5" as="sourcePoint" />
            <mxPoint x="1700" y="1310.5" as="targetPoint" />
          </mxGeometry>
        </mxCell>
      </root>
    </mxGraphModel>
  </diagram>
</mxfile>
